<?xml version="1.0" encoding="UTF-8" standalone="no"?>
<!-- Created with Inkscape (http://www.inkscape.org/) -->

<svg
   xmlns:dc="http://purl.org/dc/elements/1.1/"
   xmlns:cc="http://creativecommons.org/ns#"
   xmlns:rdf="http://www.w3.org/1999/02/22-rdf-syntax-ns#"
   xmlns:svg="http://www.w3.org/2000/svg"
   xmlns="http://www.w3.org/2000/svg"
   xmlns:xlink="http://www.w3.org/1999/xlink"
   xmlns:sodipodi="http://sodipodi.sourceforge.net/DTD/sodipodi-0.dtd"
   xmlns:inkscape="http://www.inkscape.org/namespaces/inkscape"
   width="295.66882"
   height="446.52402"
   id="svg2"
   version="1.1"
   inkscape:version="0.48.2 r9819"
   sodipodi:docname="Logo ATP World Tour Finals.svg">
  <defs
     id="defs4"><clipPath
   clipPathUnits="userSpaceOnUse"
   id="clipPath5341">
  <path
     d="m 737.008,7.936 737.007,0 0,1012.536 -737.007,0 0,-1012.536 z"
     id="path5343"
     inkscape:connector-curvature="0" />
</clipPath>

	
	
	
	
	
	
	
	
	
	
	
	
	
	
	
	
	
	
	
	
<clipPath
   id="SVGID_677_">
		<use
   xlink:href="#SVGID_676_"
   overflow="visible"
   id="use4022"
   style="overflow:visible"
   x="0"
   y="0"
   width="595.276"
   height="841.89099" />

	</clipPath>

	<defs
   id="defs4018">
		<path
   id="SVGID_676_"
   d="m -203.862,562.153 0,-114.52 c 0.001,-6.594 4.899,-11.354 11.362,-11.354 -6.463,0 -11.702,-5.348 -11.702,-11.939 l -0.03,-32.203 c 0,-2.888 2.294,-5.227 5.118,-5.227 l 278.296,0 c 11.734,0 21.246,9.703 21.246,21.671 l 0,164.288 c 0,5.41 -4.301,10.952 -9.608,10.952 l -273.436,0 c -11.739,0 -21.246,-12.784 -21.246,-21.668"
   inkscape:connector-curvature="0" />

	</defs>

	<inkscape:perspective
   id="perspective4207"
   inkscape:persp3d-origin="297.638 : 280.63033 : 1"
   inkscape:vp_z="595.276 : 420.9455 : 1"
   inkscape:vp_y="0 : 1000 : 0"
   inkscape:vp_x="0 : 420.9455 : 1"
   sodipodi:type="inkscape:persp3d" />
<clipPath
   clipPathUnits="userSpaceOnUse"
   id="clipPath4335">
  <path
     d="m 56.693,1323.306 80.226,0 0,108.19 -80.226,0 0,-108.19 z"
     id="path4337"
     inkscape:connector-curvature="0" />
</clipPath>
<linearGradient
   x1="0"
   y1="0"
   x2="1"
   y2="0"
   gradientUnits="userSpaceOnUse"
   gradientTransform="matrix(75.695724,-85.227295,-85.227295,-75.695724,56.848511,1414.3225)"
   spreadMethod="pad"
   id="linearGradient4321">
  <stop
     style="stop-opacity:1;stop-color:#b06a0a"
     offset="0"
     id="stop4323" />
  <stop
     style="stop-opacity:1;stop-color:#fccf34"
     offset="0.48999"
     id="stop4325" />
  <stop
     style="stop-opacity:1;stop-color:#b06a0a"
     offset="1"
     id="stop4327" />
</linearGradient>
<linearGradient
   y2="0"
   x2="1"
   y1="0"
   x1="0"
   spreadMethod="pad"
   gradientTransform="matrix(75.695724,-85.227295,-85.227295,-75.695724,56.848511,1414.3225)"
   gradientUnits="userSpaceOnUse"
   id="linearGradient5511"
   xlink:href="#linearGradient4321"
   inkscape:collect="always" />
<linearGradient
   x1="0"
   y1="0"
   x2="1"
   y2="0"
   gradientUnits="userSpaceOnUse"
   gradientTransform="matrix(63.361664,0,0,-63.361664,65.943726,1422.7984)"
   spreadMethod="pad"
   id="linearGradient4299">
  <stop
     style="stop-opacity:1;stop-color:#b06a0a"
     offset="0"
     id="stop4301" />
  <stop
     style="stop-opacity:1;stop-color:#fccf34"
     offset="0.48999"
     id="stop4303" />
  <stop
     style="stop-opacity:1;stop-color:#b06a0a"
     offset="1"
     id="stop4305" />
</linearGradient>
<linearGradient
   y2="0"
   x2="1"
   y1="0"
   x1="0"
   spreadMethod="pad"
   gradientTransform="matrix(63.361664,0,0,-63.361664,65.943726,1422.7984)"
   gradientUnits="userSpaceOnUse"
   id="linearGradient5509"
   xlink:href="#linearGradient4299"
   inkscape:collect="always" />
<linearGradient
   x1="0"
   y1="0"
   x2="1"
   y2="0"
   gradientUnits="userSpaceOnUse"
   gradientTransform="matrix(63.357971,0,0,-63.357971,65.946732,1422.7949)"
   spreadMethod="pad"
   id="linearGradient4277">
  <stop
     style="stop-opacity:1;stop-color:#b06a0a"
     offset="0"
     id="stop4279" />
  <stop
     style="stop-opacity:1;stop-color:#fccf34"
     offset="0.48999"
     id="stop4281" />
  <stop
     style="stop-opacity:1;stop-color:#b06a0a"
     offset="1"
     id="stop4283" />
</linearGradient>
<linearGradient
   y2="0"
   x2="1"
   y1="0"
   x1="0"
   spreadMethod="pad"
   gradientTransform="matrix(63.357971,0,0,-63.357971,65.946732,1422.7949)"
   gradientUnits="userSpaceOnUse"
   id="linearGradient5507"
   xlink:href="#linearGradient4277"
   inkscape:collect="always" />
<linearGradient
   x1="0"
   y1="0"
   x2="1"
   y2="0"
   gradientUnits="userSpaceOnUse"
   gradientTransform="matrix(63.370895,0,0,-63.370895,65.937683,1422.7961)"
   spreadMethod="pad"
   id="linearGradient4255">
  <stop
     style="stop-opacity:1;stop-color:#b06a0a"
     offset="0"
     id="stop4257" />
  <stop
     style="stop-opacity:1;stop-color:#fccf34"
     offset="0.48999"
     id="stop4259" />
  <stop
     style="stop-opacity:1;stop-color:#b06a0a"
     offset="1"
     id="stop4261" />
</linearGradient>
<linearGradient
   y2="0"
   x2="1"
   y1="0"
   x1="0"
   spreadMethod="pad"
   gradientTransform="matrix(63.370895,0,0,-63.370895,65.937683,1422.7961)"
   gradientUnits="userSpaceOnUse"
   id="linearGradient5505"
   xlink:href="#linearGradient4255"
   inkscape:collect="always" />
<linearGradient
   x1="0"
   y1="0"
   x2="1"
   y2="0"
   gradientUnits="userSpaceOnUse"
   gradientTransform="matrix(63.346893,0,0,-63.346893,65.951233,1422.7982)"
   spreadMethod="pad"
   id="linearGradient4233">
  <stop
     style="stop-opacity:1;stop-color:#b06a0a"
     offset="0"
     id="stop4235" />
  <stop
     style="stop-opacity:1;stop-color:#fccf34"
     offset="0.48999"
     id="stop4237" />
  <stop
     style="stop-opacity:1;stop-color:#b06a0a"
     offset="1"
     id="stop4239" />
</linearGradient>
<linearGradient
   y2="0"
   x2="1"
   y1="0"
   x1="0"
   spreadMethod="pad"
   gradientTransform="matrix(63.346893,0,0,-63.346893,65.951233,1422.7982)"
   gradientUnits="userSpaceOnUse"
   id="linearGradient5503"
   xlink:href="#linearGradient4233"
   inkscape:collect="always" />
<linearGradient
   x1="0"
   y1="0"
   x2="1"
   y2="0"
   gradientUnits="userSpaceOnUse"
   gradientTransform="matrix(63.360443,0,0,-63.360443,65.944641,1422.7984)"
   spreadMethod="pad"
   id="linearGradient4211">
  <stop
     style="stop-opacity:1;stop-color:#b06a0a"
     offset="0"
     id="stop4213" />
  <stop
     style="stop-opacity:1;stop-color:#fccf34"
     offset="0.48999"
     id="stop4215" />
  <stop
     style="stop-opacity:1;stop-color:#b06a0a"
     offset="1"
     id="stop4217" />
</linearGradient>
<linearGradient
   y2="0"
   x2="1"
   y1="0"
   x1="0"
   spreadMethod="pad"
   gradientTransform="matrix(63.360443,0,0,-63.360443,65.944641,1422.7984)"
   gradientUnits="userSpaceOnUse"
   id="linearGradient5501"
   xlink:href="#linearGradient4211"
   inkscape:collect="always" />
<linearGradient
   x1="0"
   y1="0"
   x2="1"
   y2="0"
   gradientUnits="userSpaceOnUse"
   gradientTransform="matrix(63.359207,0,0,-63.359207,65.944885,1422.8051)"
   spreadMethod="pad"
   id="linearGradient4189">
  <stop
     style="stop-opacity:1;stop-color:#b06a0a"
     offset="0"
     id="stop4191" />
  <stop
     style="stop-opacity:1;stop-color:#fccf34"
     offset="0.48999"
     id="stop4193" />
  <stop
     style="stop-opacity:1;stop-color:#b06a0a"
     offset="1"
     id="stop4195" />
</linearGradient>
<linearGradient
   y2="0"
   x2="1"
   y1="0"
   x1="0"
   spreadMethod="pad"
   gradientTransform="matrix(63.359207,0,0,-63.359207,65.944885,1422.8051)"
   gradientUnits="userSpaceOnUse"
   id="linearGradient5499"
   xlink:href="#linearGradient4189"
   inkscape:collect="always" />
<linearGradient
   x1="0"
   y1="0"
   x2="1"
   y2="0"
   gradientUnits="userSpaceOnUse"
   gradientTransform="matrix(63.361664,0,0,-63.361664,65.944885,1422.8051)"
   spreadMethod="pad"
   id="linearGradient4167">
  <stop
     style="stop-opacity:1;stop-color:#b06a0a"
     offset="0"
     id="stop4169" />
  <stop
     style="stop-opacity:1;stop-color:#fccf34"
     offset="0.48999"
     id="stop4171" />
  <stop
     style="stop-opacity:1;stop-color:#b06a0a"
     offset="1"
     id="stop4173" />
</linearGradient>
<linearGradient
   y2="0"
   x2="1"
   y1="0"
   x1="0"
   spreadMethod="pad"
   gradientTransform="matrix(63.361664,0,0,-63.361664,65.944885,1422.8051)"
   gradientUnits="userSpaceOnUse"
   id="linearGradient5497"
   xlink:href="#linearGradient4167"
   inkscape:collect="always" />
<clipPath
   clipPathUnits="userSpaceOnUse"
   id="clipPath4143">
  <path
     d="m 56.693,1323.306 80.226,0 0,108.19 -80.226,0 0,-108.19 z"
     id="path4145"
     inkscape:connector-curvature="0" />
</clipPath>
<clipPath
   clipPathUnits="userSpaceOnUse"
   id="clipPath5341-2">
  <path
     d="m 737.008,7.936 737.007,0 0,1012.536 -737.007,0 0,-1012.536 z"
     id="path5343-4"
     inkscape:connector-curvature="0" />
</clipPath>
</defs>
  <sodipodi:namedview
     id="base"
     pagecolor="#ffffff"
     bordercolor="#666666"
     borderopacity="1.0"
     inkscape:pageopacity="0.0"
     inkscape:pageshadow="2"
     inkscape:zoom="0.81915141"
     inkscape:cx="70.27651"
     inkscape:cy="338.80512"
     inkscape:document-units="px"
     inkscape:current-layer="layer1"
     showgrid="false"
     inkscape:window-width="1366"
     inkscape:window-height="706"
     inkscape:window-x="-8"
     inkscape:window-y="-8"
     inkscape:window-maximized="1"
     fit-margin-top="5"
     fit-margin-right="5"
     fit-margin-bottom="5"
     fit-margin-left="5" />
  <metadata
     id="metadata7">
    <rdf:RDF>
      <cc:Work
         rdf:about="">
        <dc:format>image/svg+xml</dc:format>
        <dc:type
           rdf:resource="http://purl.org/dc/dcmitype/StillImage" />
        <dc:title></dc:title>
      </cc:Work>
    </rdf:RDF>
  </metadata>
  <g
     inkscape:label="Calque 1"
     inkscape:groupmode="layer"
     id="layer1"
     transform="translate(-127.94794,-1001.2125)">
    <g
       id="g9804"
       transform="matrix(0.75000482,0,0,0.75000482,311.57495,798.328)">
      <path
         sodipodi:nodetypes="csssscc"
         d="m 141.14067,371.21035 c -0.32914,13.21429 -0.37902,13.11975 -0.37902,29.15337 l 0,427.0658 c 0,16.04085 -11.73583,29.15337 -26.04955,29.15337 l -324.85893,0 c -14.33305,0 -26.04955,-13.11252 -26.04955,-29.15337 3.69494,-125.36976 -2.81248,-457.34296 -0.0219,-456.21917"
         style="fill:#002866;fill-opacity:1;fill-rule:nonzero;stroke:none"
         id="path5347"
         inkscape:connector-curvature="0" />
      <rect
         ry="20.42836"
         y="281.61581"
         x="-234.28886"
         height="89.717911"
         width="373.00879"
         id="rect3903"
         style="fill:#00b1f0;fill-opacity:1;stroke:none" />
      <g
         style="fill:#ffffff"
         id="g6604"
         transform="matrix(1.7990134,0,0,1.7990134,-241.89089,-484.4618)">
        <g
           style="fill:#ffffff"
           transform="translate(-225.52044,15.881721)"
           id="g3873">
          <path
             style="fill:#ffffff"
             d="m 426.9808,427.10886 c -0.96142,-1.7655 -3.03388,-3.10455 -5.28492,-3.10455 -1.97981,0 -3.72118,0.82162 -3.72118,2.95196 0,1.79388 2.19216,3.01067 4.47409,4.50229 2.49044,1.58163 5.07354,3.52711 5.07354,6.90554 0,4.41132 -4.23277,7.11778 -9.12677,7.11778 -2.01165,0 -4.11211,-0.39516 -6.48381,-1.30774 l 0.389,-5.87167 c 1.14194,2.34358 3.27425,4.1981 6.42397,4.1981 2.43253,0 4.23278,-1.18548 4.23278,-3.25519 0,-1.76453 -1.47207,-2.85904 -3.27135,-3.95356 -3.78392,-2.3113 -6.18362,-4.16875 -6.18362,-7.51392 0,-5.0207 4.14204,-6.69328 8.43466,-6.69328 2.49044,0 4.05324,0.45678 5.64306,0.45678 l -0.59945,5.56746 m -20.98336,5.26131 c -0.54248,0.91357 -1.22977,2.15872 -1.65256,3.07326 -0.35909,1.73323 -0.5396,4.04649 -0.5396,6.60036 0,1.06517 0.18051,2.4942 0.66026,2.9813 l -6.2734,0 c 1.10913,-1.06418 1.56087,-7.60293 1.50199,-9.67263 -0.84076,-2.95001 -1.98365,-5.77971 -3.72407,-9.2178 -1.10814,-2.15872 -2.40067,-4.19907 -3.2115,-4.59326 1.41028,-0.1203 3.2115,-0.21225 4.08315,-0.21225 1.55991,0 1.98174,0.21225 2.94316,2.3426 1.49812,3.43809 2.60916,6.0213 3.27038,7.9394 1.59176,-2.5255 2.70184,-4.25874 4.14301,-6.63166 0.36005,-0.57806 0.66025,-1.30774 0.66025,-2.00808 0,-0.54872 -0.0907,-1.15614 -0.33013,-1.43001 l 6.21451,0 c -1.20082,0.27387 -6.60545,8.88329 -7.74545,10.82877 m -21.82509,-5.32097 -3.72118,8.181 6.06296,0 -2.34178,-8.181 m 7.29562,18.18815 c -1.98269,0 -2.13134,-0.0597 -3.7231,-5.59583 l -0.56952,-2.0384 c -0.95949,0.4558 -2.67287,0.66903 -5.40366,0.66903 l -2.76169,0 -0.48071,1.03388 c -0.69017,1.55325 -1.62071,3.37549 -1.62071,4.65585 0,0.3042 0.0299,0.63773 0.15059,1.06419 l -16.39151,0 c 0.9315,-1.06419 1.23171,-4.50131 1.68153,-10.73878 l 0.0897,-1.48967 c 0.24035,-3.55938 0.4228,-6.29715 0.39094,-8.21231 -0.0299,-1.58162 -0.18051,-2.58615 -0.6004,-3.04195 l 6.33515,0 c -0.90157,0.70033 -1.23266,4.47099 -1.65159,10.70846 l -0.12066,1.48968 c -0.15059,2.31227 -0.44983,4.68422 -0.44983,6.99649 0,1.06322 0.41991,1.30677 1.50199,1.30677 3.84087,0 4.80326,-0.0909 6.54269,-1.27742 1.08016,-2.00808 2.31283,-4.53359 3.51172,-7.14909 l 1.6236,-3.49775 c 1.52998,-3.28551 3.03004,-6.63263 3.03004,-7.27037 0,-0.45776 -0.11971,-0.88227 -0.29828,-1.30873 l 5.04265,0 c 0,0 2.04061,7.66651 2.4914,9.3078 l 0.98942,3.71196 c 1.71048,6.2365 2.79256,9.27748 4.23373,10.46393 -1.20274,0.15259 -2.91322,0.21226 -3.54356,0.21226 m -40.85568,0.24453 c -5.97415,0 -9.42697,-4.98842 -9.42697,-10.58522 0,-7.78682 4.17196,-13.81204 12.12783,-13.81204 2.49141,0 3.66326,0.45678 5.67298,0.45678 l -0.59943,5.99295 c -1.14097,-2.09905 -3.00301,-3.52906 -5.49344,-3.52906 -4.95288,0 -6.96453,5.41585 -6.96453,10.06975 0,5.04906 2.79256,7.81616 6.51374,7.81616 2.01165,0 3.78198,-0.54774 6.75506,-2.64582 -1.20081,3.89488 -3.99338,6.2365 -8.58524,6.2365 m -20.71308,-21.08045 c -0.57049,0 -1.2626,0 -1.80123,0.0607 -0.18051,1.00356 -0.33109,2.73776 -0.54152,5.53519 l -0.12066,1.64421 c 0.30213,0.0616 0.69115,0.093 1.05216,0.093 2.88041,0 4.86311,-1.76649 4.86311,-4.44165 0,-1.82712 -1.26067,-2.89132 -3.45186,-2.89132 m 8.37384,21.6282 c -1.71048,0 -2.13135,-0.27485 -2.70087,-1.06615 l -6.48478,-9.12587 c -0.51064,-0.69935 -0.90061,-1.27743 -1.71049,-1.27743 l -0.15058,0 -0.11873,1.76453 c -0.15155,2.40325 -0.24132,4.32134 -0.24132,5.75038 0.0299,1.58162 0.21043,2.55387 0.6313,2.95 l -6.27436,0 c 0.89965,-0.82161 1.22882,-3.55938 1.74042,-10.73878 l 0.0907,-1.48967 c 0.24035,-3.52808 0.42086,-6.26683 0.38998,-8.18198 -0.0308,-1.67357 -0.20947,-2.70841 -0.66122,-3.07326 3.57252,0 8.55532,0 8.55532,0 2.7916,0 6.6344,0.48808 6.6344,5.08036 0,3.77066 -2.49236,5.84036 -5.58321,6.81261 0.30021,0.27486 0.8398,0.97421 1.17089,1.40067 l 4.71252,6.32746 c 2.94219,3.92422 3.18158,4.10616 4.23375,4.6539 -1.32148,0.15161 -3.09181,0.21323 -4.23375,0.21323 m -29.23655,-18.98043 -3.75495,8.181 6.09384,0 -2.33889,-8.181 m 7.29273,18.18815 c -1.9798,0 -2.13038,-0.0597 -3.72117,-5.59583 l -0.57049,-2.0384 c -0.96239,0.4558 -2.67287,0.66903 -5.40463,0.66903 l -2.76167,0 -0.47976,1.03388 c -0.48071,1.09647 -1.6516,3.34811 -1.62168,4.65585 0,0.3042 0.0299,0.6084 0.15059,1.0642 l -5.55328,0 c 1.59079,-1.61195 3.60244,-5.35325 6.39405,-11.40685 l 1.62168,-3.49775 c 1.47013,-3.16324 3.03195,-6.75295 3.03195,-7.27037 0,-0.45776 -0.11873,-0.88227 -0.3002,-1.30873 l 5.04458,0 c 0,0 1.31858,5.08036 2.49044,9.3078 l 0.99038,3.71197 c 1.71145,6.23649 2.7916,9.27747 4.23277,10.46393 -1.29059,0.1516 -2.91226,0.21127 -3.54356,0.21127 M 287.75,424.37124 c -0.45079,0 -1.05023,0 -1.62071,0.0616 -0.24036,1.64226 -0.39094,3.22389 -0.50968,4.95711 0,0 -0.0907,1.48968 -0.0907,1.42904 l 0.60041,0 c 2.94218,0 5.64498,-1.03388 5.64498,-3.76968 0,-1.58357 -1.29155,-2.67809 -4.02427,-2.67809 m -0.74906,9.30779 -1.65064,0 -0.24035,3.46744 c -0.11969,1.52195 -0.18051,2.79841 -0.21043,4.31937 0,0.21421 0.66025,0.67002 2.22014,0.67002 3.2424,0 5.37471,-1.64227 5.37471,-4.35068 0,-3.01164 -2.43251,-4.10615 -5.49343,-4.10615 m 0.36005,11.34619 -8.1055,0 c 1.02128,-0.91356 1.29156,-4.47196 1.74137,-10.73878 l 0.0897,-1.45935 c 0.24133,-3.55938 0.42087,-6.29715 0.39094,-8.2123 -0.0299,-1.64325 -0.21043,-2.70841 -0.66121,-3.07326 l 9.06596,0 c 2.16126,0 6.48478,0.12227 6.48478,4.68422 0,3.04196 -2.79257,4.92777 -5.34381,5.59876 3.60244,0.36484 6.30426,2.1284 6.30426,5.90003 -9.6e-4,4.07583 -3.78295,7.30068 -9.96656,7.30068"
             id="path21"
             inkscape:connector-curvature="0" />
          <path
             style="fill:#ffffff"
             id="path4050"
             d="m 19.741,489.332 c -0.832,0 -1.004,0.145 -1.274,0.446 -0.106,-0.007 -0.217,-0.009 -0.333,-0.009 -0.64,0 -1.462,0.094 -2.163,0.563 -0.677,0.447 -0.999,1.238 -0.638,1.817 0,0 0.242,-0.355 1.038,-0.355 0.112,0 0.236,0.012 0.368,0.023 1.1,0.13 1.914,0.709 1.815,2.238 -0.088,1.528 -0.661,3.232 -3.005,3.252 0,0 -0.302,0 -0.624,-0.03 -1.091,-0.119 -1.434,-0.804 -1.434,-0.804 0,0 0.943,-0.256 0.951,-1.453 -0.008,-0.814 -0.717,-1.559 -1.74,-1.86 -0.335,-0.098 -0.703,-0.146 -1.086,-0.146 -1.206,0 -2.56,0.505 -3.473,1.697 -2.07,2.733 -2.238,6.717 -1.733,10.422 0.508,3.713 2.863,7.152 2.932,7.246 0.05,0.066 0.095,0.102 0.146,0.102 0.026,0 0.053,-0.012 0.081,-0.035 1.017,-0.987 1.987,-2.336 2.402,-3.238 0.444,0.354 0.212,1.107 -0.032,1.911 -0.232,0.822 -0.796,1.913 -1,2.265 -0.197,0.344 -0.461,0.744 -0.106,0.953 0.036,0.022 0.082,0.034 0.137,0.034 0.456,0 1.529,-0.795 2.726,-2.391 1.34,-1.796 2.02,-3.39 2.02,-3.39 0.098,0.022 0.262,0.188 0.235,0.64 -0.018,0.459 -0.49,2.167 -1.409,3.757 -0.929,1.589 -1.787,2.583 -1.96,2.809 -0.107,0.131 -0.016,0.213 0.053,0.266 0.068,0.046 1.711,1.58 4.098,2.876 2.828,1.507 4.082,1.778 4.082,1.778 0,0 1.251,-0.264 4.079,-1.77 2.386,-1.298 4.036,-2.839 4.097,-2.891 0.069,-0.047 0.157,-0.121 0.053,-0.265 -0.163,-0.216 -1.024,-1.215 -1.951,-2.804 -0.916,-1.579 -1.406,-3.298 -1.413,-3.751 -0.019,-0.457 0.135,-0.608 0.229,-0.646 0,0 0.687,1.604 2.027,3.39 1.203,1.598 2.266,2.391 2.724,2.391 0.058,0 0.104,-0.012 0.142,-0.034 0.344,-0.209 0.088,-0.615 -0.114,-0.955 -0.188,-0.35 -0.76,-1.434 -1.003,-2.263 -0.233,-0.813 -0.475,-1.565 -0.023,-1.911 0.416,0.902 1.379,2.258 2.399,3.231 0.027,0.028 0.058,0.042 0.088,0.042 0.045,0 0.093,-0.035 0.135,-0.096 0.075,-0.1 2.434,-3.533 2.938,-7.252 0.506,-3.713 0.339,-7.688 -1.733,-10.422 -0.907,-1.195 -2.271,-1.703 -3.485,-1.703 -0.379,0 -0.741,0.049 -1.072,0.144 -1.031,0.31 -1.737,1.062 -1.731,1.868 0,1.197 0.948,1.453 0.948,1.453 0,0 -0.317,0.668 -1.447,0.804 -0.211,0.026 -0.416,0.038 -0.612,0.038 -0.85,0 -1.566,-0.27 -2.226,-1.202 -0.64,-0.897 -0.619,-2.744 -0.656,-3.36 -0.029,-0.625 -0.163,-2.027 -0.82,-2.599 -0.655,-0.587 -1.453,-0.784 -2.448,-0.823 -0.073,0.002 -0.138,0.002 -0.199,0.002"
             clip-path="url(#SVGID_677_)"
             transform="translate(235.56141,-71.280318)"
             inkscape:connector-curvature="0" />
        </g>
      </g>
      <path
         inkscape:connector-curvature="0"
         id="path5351"
         style="fill:#002866;fill-opacity:1;fill-rule:nonzero;stroke:none"
         d="m -210.14618,859.20577 c -15.42866,-0.009 -28.01519,-16.76505 -28.02164,-37.26709 l 0,-507.50267 c 0.006,-20.51061 12.59298,-37.24137 28.02164,-37.25851 l 324.85893,0 c 15.40932,0.0171 27.98941,16.7479 28.00874,37.25851 l 0,507.50267 c -0.0193,20.51061 -12.59942,37.24995 -28.00874,37.26709 l -324.85893,0 z m -24.08391,-544.76976 0,507.50267 c 0.0129,17.59644 10.84001,31.99587 24.08391,32.03016 l 324.85893,0 c 13.21167,-0.0343 24.05168,-14.43372 24.07102,-32.03016 l 0,-507.50267 c -0.0193,-17.59644 -10.85935,-31.99587 -24.07102,-32.03015 l -324.85893,0 c -13.2439,0.0343 -24.07102,14.43371 -24.08391,32.03015" />
      <path
         sodipodi:nodetypes="csssccccc"
         inkscape:connector-curvature="0"
         id="path4094"
         d="m -234.17082,362.19406 c 0.008,-8.18928 0.0208,-8.96223 0.13656,-8.212 0.82392,5.33949 8.89646,6.15948 13.21262,9.35195 2.60471,1.92658 0.18867,7.07657 3.51706,7.68068 l 1.11607,0.20257 -8.99554,0.008 -8.99553,0.008 0.009,-9.04018 z"
         style="fill:#00aff0;fill-opacity:1;stroke:none" />
      <path
         inkscape:connector-curvature="0"
         id="path4096"
         d="m 124.04315,370.36829 c 7.30479,-2.36441 12.5511,-7.9977 14.1043,-15.14468 0.45208,-2.08021 0.48352,-1.66108 0.51016,6.80104 l 0.0284,9.01785 -8.30357,-0.0192 -8.30357,-0.0192 1.96429,-0.6358 z"
         style="fill:#00aff0;fill-opacity:1;stroke:none" />
      <path
         inkscape:connector-curvature="0"
         id="path4098"
         d="m 63.964372,357.51391 0,-13.79464 37.410718,0 37.41071,0 0,13.73521 0,13.73521 -13.99554,0.0594 c -7.69754,0.0327 -24.53236,0.0594 -37.410709,0.0594 l -23.415179,3e-5 0,-13.79464 z"
         style="fill:#00aff0;fill-opacity:1;stroke:none" />
      <g
         id="g9149"
         transform="matrix(6.9429342,0,0,-6.9429342,-1313.6627,7358.2592)">
        <g
           id="g9353">
          <g
             id="g6452"
             transform="translate(165.281,944.44)"
             style="fill:#ffffff">
            <path
               inkscape:connector-curvature="0"
               d="m 0,0 -2.77,0 -0.244,-1.188 1.699,0 c 0.817,0 0.858,-0.064 0.657,-0.975 l -2.568,0 -0.488,-2.282 c -0.222,0 -0.828,-0.044 -0.998,0.116 -0.106,0.106 -0.094,0.307 -0.01,0.723 l 0.796,3.724 c 0.095,0.465 0.138,0.806 0.69,0.86 0.137,0.01 0.318,0.01 0.552,0.01 l 2.079,0 c 0.414,0 0.764,0.031 0.721,-0.425 C 0.106,0.457 0.074,0.307 0,0"
               style="fill:#ffffff;fill-opacity:1;fill-rule:nonzero;stroke:none"
               id="path6454" />
          </g>
          <g
             id="g6456"
             transform="translate(169.432,939.995)"
             style="fill:#ffffff">
            <path
               inkscape:connector-curvature="0"
               d="m 0,0 c -1.103,0 -1.188,0.031 -1.018,0.839 l 0.975,4.594 c 1.105,0 1.2,-0.033 1.03,-0.807 L 0,0"
               style="fill:#ffffff;fill-opacity:1;fill-rule:nonzero;stroke:none"
               id="path6458" />
          </g>
          <g
             id="g6460"
             transform="translate(178.92,939.995)"
             style="fill:#ffffff">
            <path
               inkscape:connector-curvature="0"
               d="m 0,0 -0.583,0 c -0.753,0 -0.764,0.085 -1.02,0.635 L -3.173,3.872 -4.001,0 c -1.103,0 -1.187,0.031 -1.017,0.847 l 0.253,1.148 0.733,3.449 0.562,0 c 0.68,0 0.776,0.02 1.062,-0.584 l 1.56,-3.257 0.657,3.085 c 0.147,0.735 0.265,0.756 1.359,0.756 L 0,0"
               style="fill:#ffffff;fill-opacity:1;fill-rule:nonzero;stroke:none"
               id="path6462" />
          </g>
          <g
             id="g6464"
             transform="translate(186.465,944.409)"
             style="fill:#ffffff">
            <path
               inkscape:connector-curvature="0"
               d="m 0,0 -1.443,-2.506 1.827,0 L 0,0 z m 1.19,-4.404 c -0.511,0.032 -0.53,0.212 -0.605,0.617 l -0.064,0.38 -2.475,0 -0.22,-0.38 c -0.394,-0.658 -0.361,-0.627 -1.698,-0.627 l 2.886,4.773 C -0.602,0.997 -0.54,1.03 0.16,1.03 l 0.712,0 1.03,-5.444 c -0.436,0 -0.563,0 -0.712,0.01"
               style="fill:#ffffff;fill-opacity:1;fill-rule:nonzero;stroke:none"
               id="path6466" />
          </g>
          <g
             id="g6468"
             transform="translate(195.284,939.995)"
             style="fill:#ff0000">
            <path
               inkscape:connector-curvature="0"
               d="m 0,0 -2.259,0 c -0.862,0 -1.007,0 -0.828,0.847 l 0.975,4.586 c 0.235,0 0.839,0.042 1.009,-0.116 0.106,-0.108 0.096,-0.32 0,-0.745 l -0.764,-3.596 1.211,0 c 0.423,0 0.625,-0.031 0.71,-0.137 C 0.193,0.679 0.044,0.201 0,0"
               style="fill:#ffffff;fill-opacity:1;fill-rule:nonzero;stroke:none"
               id="path6470" />
          </g>
          <g
             id="g6472"
             transform="translate(203.03,944.44)"
             style="fill:#ffffff">
            <path
               inkscape:connector-curvature="0"
               d="m 0,0 -1.144,0 c -0.149,0 -0.849,0.021 -1.007,-0.064 -0.139,-0.063 -0.191,-0.478 -0.212,-0.561 -0.033,-0.17 0.063,-0.351 0.37,-0.457 0.986,-0.328 2.77,-0.211 2.439,-1.752 -0.17,-0.816 -0.901,-1.621 -2.672,-1.621 l -1.964,0 c 0.117,0.56 0.191,0.774 0.318,0.88 0.129,0.116 0.351,0.137 0.774,0.137 l 1.061,0 c 0.171,0 0.924,-0.021 1.095,0.054 0.126,0.062 0.18,0.402 0.201,0.498 0.095,0.457 -0.529,0.648 -0.87,0.723 -0.911,0.191 -2.197,0.243 -1.952,1.528 0.202,1.027 1.072,1.634 2.662,1.634 l 1.974,0 C 0.872,0.064 0.808,0 0,0"
               style="fill:#ffffff;fill-opacity:1;fill-rule:nonzero;stroke:none"
               id="path6474" />
          </g>
          <g
             id="g9345"
             style="fill:#ffffff">
            <g
               transform="translate(171.536,961.689)"
               id="g6476"
               style="fill:#ffffff">
              <path
                 id="path6478"
                 style="fill:#ffffff;fill-opacity:1;fill-rule:nonzero;stroke:none"
                 d="m 0,0 -4.096,-5.284 5.181,0 L 0,0 z m 3.375,-9.291 c -1.447,0.066 -1.506,0.446 -1.718,1.3 l -0.181,0.805 -7.02,0 -0.633,-0.805 c -1.115,-1.391 -1.024,-1.321 -4.82,-1.321 l 8.194,10.074 c 1.085,1.343 1.266,1.412 3.256,1.412 l 2.019,0 2.921,-11.486 c -1.235,0 -1.597,0 -2.018,0.021"
                 inkscape:connector-curvature="0" />
            </g>
            <g
               transform="translate(190.212,962.652)"
               id="g6480"
               style="fill:#ffffff">
              <path
                 id="path6482"
                 style="fill:#ffffff;fill-opacity:1;fill-rule:nonzero;stroke:none"
                 d="m 0,0 c -0.12,-0.247 -0.241,-0.469 -0.513,-0.627 -0.361,-0.224 -0.992,-0.268 -2.199,-0.268 l -1.957,0 -2.683,-9.38 c -3.103,0 -3.315,0.066 -2.832,1.79 l 2.17,7.59 -4.429,0 c 0.571,1.927 0.722,2.08 2.921,2.08 l 9.883,0 C 0.181,0.515 0.091,0.222 0,0"
                 inkscape:connector-curvature="0" />
            </g>
            <g
               transform="translate(197.715,961.78)"
               id="g6484"
               style="fill:#ffffff">
              <path
                 id="path6486"
                 style="fill:#ffffff;fill-opacity:1;fill-rule:nonzero;stroke:none"
                 d="m 0,0 -2.622,0 -1.026,-3.583 2.683,0 c 3.164,0 3.195,-0.023 3.706,1.835 C 2.981,-0.963 3.013,0 0,0 z m -1.507,-5.599 -2.712,0 -0.573,-1.969 -0.542,-1.835 c -0.633,0 -2.35,-0.089 -2.863,0.245 -0.301,0.245 -0.27,0.673 0,1.59 l 2.23,7.813 c 0.272,0.918 0.332,1.68 1.989,1.792 0.361,0.02 0.874,0.02 1.568,0.02 l 2.921,0 c 6.147,0 6.176,-2.169 5.695,-3.805 -0.453,-1.588 -1.508,-3.851 -7.713,-3.851"
                 inkscape:connector-curvature="0" />
            </g>
          </g>
          <g
             id="g6488"
             transform="translate(165.754,947.795)"
             style="fill:#ffffff">
            <path
               inkscape:connector-curvature="0"
               d="m 0,0 c -0.173,-0.243 -0.273,-0.363 -0.391,-0.432 -0.163,-0.087 -0.391,-0.075 -0.564,-0.075 l -0.536,0 L -1.827,2.006 -3.225,0 C -3.562,-0.473 -3.58,-0.507 -4.298,-0.507 l -0.418,0 -0.499,3.463 c 0.218,0 0.726,0.027 0.908,-0.066 0.172,-0.081 0.172,-0.291 0.182,-0.432 l 0.208,-2.026 1.772,2.524 c 0.236,0 0.781,0.021 0.982,-0.066 0.181,-0.081 0.181,-0.284 0.208,-0.432 L -0.691,0.432 0.672,2.458 C 1.017,2.965 1.008,2.956 2.107,2.956 L 0,0"
               style="fill:#ffffff;fill-opacity:1;fill-rule:nonzero;stroke:none"
               id="path6490" />
          </g>
          <g
             id="g6492"
             transform="translate(170.137,950.152)"
             style="fill:#ffffff">
            <path
               inkscape:connector-curvature="0"
               d="m 0,0 c -1.3,0 -1.291,-0.006 -1.608,-1.134 -0.191,-0.668 -0.091,-1.135 0.962,-1.135 1.3,0 1.292,0.008 1.619,1.127 C 1.163,-0.465 1.071,0 0,0 z m -0.826,-2.902 c -1.881,0 -2.09,0.843 -1.827,1.768 0.263,0.924 0.962,1.769 2.835,1.769 1.888,0 2.088,-0.845 1.826,-1.777 -0.264,-0.917 -0.945,-1.76 -2.834,-1.76"
               style="fill:#ffffff;fill-opacity:1;fill-rule:nonzero;stroke:none"
               id="path6494" />
          </g>
          <g
             id="g6496"
             transform="translate(175.117,948.565)"
             style="fill:#ffffff">
            <path
               inkscape:connector-curvature="0"
               d="m 0,0 1.362,-1.277 c -0.554,0 -0.535,0 -0.699,0 -0.536,0.007 -0.654,0.075 -0.936,0.386 l -0.872,0.966 c -0.144,0.168 -0.018,0.504 0.418,0.504 l 0.29,0 c 0.5,0 0.746,-0.012 0.891,0.054 0.127,0.063 0.191,0.359 0.219,0.44 0.054,0.216 0.044,0.486 -0.845,0.486 l -0.774,0 -0.417,-1.457 -0.401,-1.379 c -0.19,0 -0.708,-0.027 -0.862,0.075 -0.091,0.068 -0.081,0.201 0,0.473 l 0.672,2.363 c 0.082,0.276 0.1,0.507 0.6,0.54 0.109,0.006 0.264,0.006 0.473,0.006 l 0.853,0 C 1.799,2.18 1.835,1.538 1.708,1.073 1.479,0.282 0.717,0 0,0"
               style="fill:#ffffff;fill-opacity:1;fill-rule:nonzero;stroke:none"
               id="path6498" />
          </g>
          <g
             id="g6500"
             transform="translate(179.695,947.289)"
             style="fill:#ffffff">
            <path
               inkscape:connector-curvature="0"
               d="M 0,0 -1.934,0 C -2.67,0 -2.799,0 -2.643,0.54 l 0.836,2.917 c 0.199,0 0.718,0.027 0.862,-0.073 0.092,-0.068 0.081,-0.203 0,-0.473 l -0.653,-2.29 1.035,0 c 0.364,0 0.537,-0.019 0.61,-0.087 C 0.163,0.432 0.036,0.131 0,0"
               style="fill:#ffffff;fill-opacity:1;fill-rule:nonzero;stroke:none"
               id="path6502" />
          </g>
          <g
             id="g6504"
             transform="translate(182.759,950.125)"
             style="fill:#ffffff">
            <path
               inkscape:connector-curvature="0"
               d="m 0,0 -0.691,0 -0.637,-2.221 0.645,0 c 1.453,0 1.453,0 1.781,1.141 C 1.335,-0.23 0.953,0 0,0 z m -0.71,-2.842 -0.91,0 c -0.434,0 -0.652,0.012 -0.744,0.075 -0.136,0.099 -0.044,0.33 -0.009,0.465 l 0.164,0.575 0.518,1.802 c 0.155,0.533 0.236,0.546 1.063,0.546 l 0.983,0 c 1.47,0 2.062,-0.615 1.752,-1.707 C 1.79,-2.167 0.77,-2.842 -0.71,-2.842"
               style="fill:#ffffff;fill-opacity:1;fill-rule:nonzero;stroke:none"
               id="path6506" />
          </g>
          <g
             id="g6508"
             transform="translate(190.376,950.388)"
             style="fill:#ffffff">
            <path
               inkscape:connector-curvature="0"
               d="M 0,0 C -0.037,-0.073 -0.073,-0.141 -0.156,-0.189 -0.264,-0.257 -0.455,-0.27 -0.818,-0.27 l -0.59,0 -0.809,-2.83 c -0.937,0 -0.999,0.021 -0.856,0.54 l 0.656,2.29 -1.335,0 c 0.173,0.579 0.218,0.627 0.881,0.627 l 2.979,0 C 0.054,0.156 0.027,0.067 0,0"
               style="fill:#ffffff;fill-opacity:1;fill-rule:nonzero;stroke:none"
               id="path6510" />
          </g>
          <g
             id="g6512"
             transform="translate(192.764,950.152)"
             style="fill:#ffffff">
            <path
               inkscape:connector-curvature="0"
               d="m 0,0 c -1.3,0 -1.291,-0.006 -1.609,-1.134 -0.189,-0.668 -0.091,-1.135 0.963,-1.135 1.3,0 1.292,0.008 1.618,1.127 C 1.163,-0.465 1.071,0 0,0 z m -0.826,-2.902 c -1.881,0 -2.091,0.843 -1.827,1.768 0.263,0.924 0.963,1.769 2.836,1.769 1.889,0 2.088,-0.845 1.825,-1.777 -0.264,-0.917 -0.945,-1.76 -2.834,-1.76"
               style="fill:#ffffff;fill-opacity:1;fill-rule:nonzero;stroke:none"
               id="path6514" />
          </g>
          <g
             id="g6516"
             transform="translate(199.15,947.864)"
             style="fill:#ffffff">
            <path
               inkscape:connector-curvature="0"
               d="m 0,0 c -0.035,-0.129 -0.062,-0.224 -0.099,-0.299 -0.09,-0.187 -0.246,-0.249 -0.509,-0.27 -0.117,-0.006 -0.272,-0.006 -0.482,-0.006 l -1.171,0 c -1.482,0 -1.964,0.446 -1.644,1.559 l 0.544,1.904 c 0.182,0 0.718,0.021 0.863,-0.066 0.1,-0.061 0.1,-0.183 0.027,-0.426 L -2.869,1.011 C -3.052,0.349 -2.934,0.079 -2.072,0.079 l 1.055,0 0.807,2.809 c 0.193,0 0.719,0.027 0.864,-0.073 C 0.756,2.747 0.745,2.626 0.673,2.363 L 0,0"
               style="fill:#ffffff;fill-opacity:1;fill-rule:nonzero;stroke:none"
               id="path6518" />
          </g>
          <g
             id="g6520"
             transform="translate(202.406,948.565)"
             style="fill:#ffffff">
            <path
               inkscape:connector-curvature="0"
               d="m 0,0 1.362,-1.277 c -0.552,0 -0.536,0 -0.7,0 -0.536,0.007 -0.654,0.075 -0.934,0.386 l -0.872,0.966 c -0.145,0.168 -0.019,0.504 0.419,0.504 l 0.289,0 c 0.5,0 0.745,-0.012 0.891,0.054 0.126,0.063 0.191,0.359 0.218,0.44 0.056,0.216 0.045,0.486 -0.845,0.486 l -0.773,0 -0.417,-1.457 -0.401,-1.379 c -0.191,0 -0.708,-0.027 -0.861,0.075 -0.092,0.068 -0.083,0.201 0,0.473 l 0.67,2.363 c 0.083,0.276 0.102,0.507 0.6,0.54 0.11,0.006 0.264,0.006 0.474,0.006 l 0.851,0 C 1.8,2.18 1.835,1.538 1.709,1.073 1.48,0.282 0.718,0 0,0"
               style="fill:#ffffff;fill-opacity:1;fill-rule:nonzero;stroke:none"
               id="path6522" />
          </g>
          <g
             id="g6524"
             transform="translate(162.947,988.558)">
            <path
               inkscape:connector-curvature="0"
               d="m 0,0 -0.206,0.135 c 0.038,0.426 -0.393,0.748 -0.393,0.748 l 0.004,0.532 c 0.007,0.225 0.014,0.432 0.01,0.619 -0.004,0.182 0.01,0.313 0.009,0.424 0,0.093 0.057,0.114 0.112,0.109 C -0.398,2.56 -0.115,2.289 -0.115,2.289 0.056,2.133 0.198,2.008 0.597,1.792 1.035,1.554 1.176,1.558 1.411,1.546 1.523,1.539 1.617,1.539 1.697,1.526 1.774,1.511 1.834,1.485 1.889,1.43 1.918,1.402 1.925,1.359 1.873,1.274 1.821,1.187 1.724,1.084 1.593,0.963 1.568,0.938 0.844,0.339 0.48,0 L 0,0 z m 0.091,10.081 c 0.53,1.315 2.452,5.004 5.37,3.68 C 8.046,12.587 7.871,8.977 6.833,6.727 5.323,3.457 2.995,1.369 0.803,2.587 -1.535,3.884 -0.744,8.006 0.091,10.081 z M 42.826,-2.811 c -0.079,0.302 -0.539,0.46 -0.539,0.46 -0.013,0.368 -0.526,0.486 -0.526,0.486 l -0.027,0.04 c -0.104,0.408 -0.564,0.316 -0.564,0.316 l 0,0.092 c -0.079,0.275 -0.513,0.184 -0.513,0.184 -0.198,0.329 -0.58,0.038 -0.58,0.038 -0.105,-0.222 -0.355,-0.222 -0.355,-0.222 -0.564,-0.027 -0.616,-0.33 -0.616,-0.33 L 38.96,-2.18 c -0.355,-0.737 -0.157,-1.026 -0.157,-1.026 0.13,-0.263 0.184,-0.42 0.184,-0.42 0.079,-0.605 0.264,-1.065 0.264,-1.065 -0.303,-0.053 -0.355,-0.422 -0.355,-0.422 -0.093,-0.341 -1.131,-1.467 -1.131,-1.467 -0.277,-0.144 -0.079,-0.498 -0.079,-0.498 -0.989,-0.96 -1.499,-1.242 -1.499,-1.242 -2.064,-1.316 -3.656,-3.144 -3.656,-3.144 -1.29,0.263 -2.932,-0.091 -2.932,-0.091 l -0.015,0.184 c -0.88,-0.198 -1.891,-0.737 -1.891,-0.737 -0.251,-0.118 -0.646,-0.013 -0.646,-0.013 -1.395,0.737 -3.89,0.513 -3.89,0.513 -1.265,-0.302 -1.58,-0.434 -1.58,-0.434 l -2.439,-0.108 -0.148,0.414 c -0.049,0.118 -0.237,0.187 -0.237,0.187 l -0.026,10e-4 c 0,0.147 -0.021,0.282 -0.054,0.413 l -0.058,1.49 0.621,0.815 c 0.188,-0.015 -0.145,2.018 -0.145,2.018 0.058,0.311 -0.458,1.468 -0.458,1.468 0.161,0.863 -0.473,1.467 -0.473,1.467 0,0 -0.358,0.453 -0.429,0.747 -0.071,0.295 -0.97,0.775 -1.587,0.989 -0.616,0.214 -1.743,-0.004 -3.053,-0.849 -1.309,-0.844 -1.551,-2.597 -1.551,-2.86 -0.002,-0.263 0.476,-1.581 0.418,-1.595 -0.058,-0.015 -0.295,0.079 -0.111,-0.668 0.182,-0.747 1.095,-1.315 1.095,-1.315 0.197,-0.062 0.574,-1.371 0.725,-1.925 l -0.17,-0.069 -0.139,-0.265 -0.315,-0.238 c -0.124,-0.036 -0.4,-0.059 -0.736,-0.075 -0.314,0.09 -1.6,0.405 -3.546,0.092 l -1.915,0.965 -0.129,-0.196 c -0.501,0.154 -1.095,0.26 -1.727,0.209 0,0 -1.37,2.757 -2.626,3.734 l -0.011,0.1 c 0.003,0 0.008,0.003 0.008,0.003 0.11,0.073 10e-4,0.363 10e-4,0.508 0,0.145 -0.391,0.59 -0.391,0.59 l -0.543,0.87 c 0,0 -0.182,0.434 -0.255,0.688 -0.072,0.252 -0.286,0.107 -0.286,0.107 -0.102,0.288 -0.129,0.587 -0.035,0.663 0.096,0.077 0.565,1.82 0.592,2.067 0.028,0.243 -0.434,1.168 -0.503,1.391 0.557,0.491 1.611,1.41 1.881,1.57 2.098,1.235 3.919,2.859 4.784,5.188 1.355,3.648 0.687,6.78 -1.685,7.976 L 5.829,14.572 5.715,14.628 5.614,14.675 C 3.358,15.44 0.783,14.149 -0.81,10.629 -1.83,8.374 -1.877,5.976 -1.325,3.449 -1.206,2.917 -1.164,2.075 -1.209,1.206 l 0.001,0 L -1.216,1.048 -1.87,0.937 C -2.135,0.816 -2.068,0.634 -2.068,0.634 l 0.169,-0.992 -0.029,-0.036 c -0.123,-0.025 -0.3,-0.114 -0.318,-0.396 L -2.274,-0.825 C -2.616,-0.885 -2.596,-1.4 -2.596,-1.4 -3.074,-1.547 -2.906,-1.983 -2.906,-1.983 -3.255,-2.213 -2.96,-2.53 -2.86,-2.699 -2.761,-2.87 -2.3,-3.898 -2.3,-3.898 l -0.518,-1.396 c -0.67,-1.625 -1.341,-3.24 -1.342,-3.241 -0.023,-0.061 -0.062,-0.098 -0.099,-0.124 l -0.075,-0.045 c -0.02,-0.015 -0.057,-0.046 -0.076,-0.195 0.075,-0.129 0.347,-0.315 0.723,-0.49 0.368,-0.185 0.517,-0.213 0.647,-0.189 0.087,0.113 0.087,0.165 0.085,0.195 -0.002,0.032 -0.011,0.059 -0.015,0.088 -0.005,0.042 -0.004,0.094 0.02,0.153 0.002,0 0.508,1.252 1.081,2.659 l 0.007,-0.006 0.423,0.991 0.092,-0.118 c -0.032,-0.012 -0.137,-0.066 -0.08,-0.218 0.065,-0.177 0.065,-0.264 0.154,-0.352 0.087,-0.088 0.132,-0.133 0.176,-0.308 0.044,-0.178 0.01,-0.464 0.066,-0.552 0.018,-0.027 0.061,-0.093 0.112,-0.17 0.029,-0.191 0.133,-0.379 0.174,-0.663 0.032,-0.234 0.137,-0.187 0.137,-0.187 0,0 0.018,0.006 0.05,0.015 0.484,-1.182 1.74,-4.577 3.524,-6.232 0,0 0.698,-0.127 1.309,-0.563 L 4.236,-14.904 4.101,-15.13 c 0,0 0.45,-0.224 0.81,-0.451 0.341,-0.209 1.925,-1.148 2.821,-1.513 l 0.489,-2.535 15.914,0 c 0.041,0.282 0.072,0.448 0.072,0.448 0.224,1.406 1.644,2.062 1.644,2.062 0.329,0.226 3.181,0.542 3.181,0.542 l -0.012,0.222 c 3.535,0.789 5.286,2.118 5.286,2.118 0.71,0.116 0.788,0.301 0.788,0.301 0.092,0.133 0.499,0.448 0.499,0.448 2.026,1.367 4.171,5.158 4.171,5.158 0.446,-0.145 0.563,0.29 0.563,0.29 0.172,0.236 1.158,1.508 1.158,1.508 0.289,0.263 0.118,0.473 0.118,0.473 l -0.145,0.184 0.052,0.053 c 0.131,0.145 0.303,0.644 0.394,0.749 0.094,0.105 0.383,0.736 0.383,0.736 0.053,0.198 0.367,0.828 0.367,0.828 0.264,0.329 0.172,0.698 0.172,0.698"
               style="fill:#00adef;fill-opacity:1;fill-rule:nonzero;stroke:none"
               id="path6526" />
          </g>
          <g
             id="g6528"
             transform="translate(182.318,968.673)">
            <path
               inkscape:connector-curvature="0"
               d="M 0,0 C 8.095,0 15.602,-1.673 21.779,-4.528 15.943,-0.673 8.328,1.661 0,1.661 -8.331,1.661 -15.943,-0.673 -21.781,-4.528 -15.603,-1.673 -8.096,0 0,0"
               style="fill:#ffffff;fill-opacity:1;fill-rule:nonzero;stroke:none"
               id="path6530" />
          </g>
        </g>
        <g
           style="fill:#ffffff"
           transform="translate(206.306,939.81)"
           id="g6532">
          <path
             id="path6534"
             style="fill:#ffffff;fill-opacity:1;fill-rule:nonzero;stroke:none"
             d="m 0,0 -0.654,-1.235 -0.004,0 -0.135,1.235 -0.519,0 -0.359,-1.713 0.357,0 0.257,1.358 0.004,0 0.162,-1.358 0.287,0 0.725,1.358 0.006,0 -0.316,-1.358 0.361,0 L 0.527,0 0,0"
             inkscape:connector-curvature="0" />
        </g>
        <g
           style="fill:#ffffff"
           transform="translate(203.933,938.097)"
           id="g6536">
          <path
             id="path6538"
             style="fill:#ffffff;fill-opacity:1;fill-rule:nonzero;stroke:none"
             d="m 0,0 0.293,1.395 0.511,0 0.066,0.318 -1.426,0 -0.067,-0.318 0.536,0 L -0.382,0 0,0"
             inkscape:connector-curvature="0" />
        </g>
      </g>
    </g>
  </g>
</svg>
